<svg xmlns="http://www.w3.org/2000/svg" viewBox="0 0 49.07 35"><defs><style>.cls-1{fill:#38add0;}</style></defs><title>ico_building</title><g id="Layer_2" data-name="Layer 2"><g id="objects"><path class="cls-1" d="M35.58,0H13.5a1,1,0,0,0-.95.94V35h0v0h9.16V28.56h5.66V35h9.15V.94A.94.94,0,0,0,35.58,0ZM31.86,4.24V7H28.41V4.24Zm0,5.73v2.81H28.41V10Zm0,5.78v2.81H28.41V15.75Zm0,5.78v2.81H28.41V21.53ZM26.11,4.24V7H22.66V4.24Zm-3.45,8.54V10h3.45v2.81Zm0,5.78V15.75h3.45v2.81Zm0,5.78V21.53h3.45v2.81Zm-2.3-20.1V7H16.91V4.24Zm0,5.73v2.81H16.91V10Zm0,5.78v2.81H16.91V15.75Zm0,5.78v2.81H16.91V21.53Z"/><path class="cls-1" d="M0,6.19V35H0v0H9.76V25.93H2.88V23.55H9.77V21H2.88V18.63H9.77V16.11H2.88V13.72H9.77V11.19H2.88V8.85H9.77V5.24H.94A.94.94,0,0,0,0,6.19Z"/><path class="cls-1" d="M48.13,5.24H39.31V8.83h6.88v2.34H39.31v2.5h0v0h6.88v2.39H39.31v2.5h0v0h6.88V21H39.31v2.5h0v0h6.88v2.38H39.31v9h0v0h9.76V6.19A.94.94,0,0,0,48.13,5.24Z"/></g></g></svg>