<svg xmlns="http://www.w3.org/2000/svg" viewBox="0 0 40.37 35.59"><defs><style>.cls-1{fill:#325a96;}.cls-2{fill:#fff;}</style></defs><title>ico_01</title><g id="Layer_2" data-name="Layer 2"><g id="objects"><path class="cls-1" d="M10.93,13.6l3.91,3,.06,0h0A.9.9,0,0,0,16,16.42l0,0,4.8-5.68a.65.65,0,1,0-1-.85l-4.49,4.79-3.46-2.41a.79.79,0,0,0-1.08.24A.8.8,0,0,0,10.93,13.6Z"/><path class="cls-1" d="M6.06,15.45c0-.21,0-.42,0-.62H3.63c0,.2,0,.41,0,.62s0,.41,0,.62H6.09C6.07,15.86,6.06,15.66,6.06,15.45Z"/><path class="cls-1" d="M10.41,7.53c.23-.15.46-.28.7-.41l.1,0L10,5c-.3.16-.6.33-.89.52l1.23,2.12Z"/><path class="cls-1" d="M5,10l2.13,1.23.51-.89L5.47,9.09C5.28,9.38,5.11,9.68,5,10Z"/><path class="cls-1" d="M23.78,19.78c-.13.24-.27.48-.42.71l-.06.09,2.13,1.22a9.85,9.85,0,0,0,.52-.89l-2.12-1.22Z"/><path class="cls-1" d="M7.12,19.78l0-.09L5,20.91a7.94,7.94,0,0,0,.52.89l2.12-1.22-.06-.09C7.38,20.26,7.25,20,7.12,19.78Z"/><path class="cls-1" d="M10.41,23.36l-.09-.06L9.09,25.43c.29.19.59.36.89.52l1.23-2.13-.1-.05A7.1,7.1,0,0,1,10.41,23.36Z"/><path class="cls-1" d="M19.69,7.07l.89.52L21.8,5.47A9.68,9.68,0,0,0,20.92,5Z"/><path class="cls-1" d="M14.83,24.81v2.45c.21,0,.41,0,.62,0s.41,0,.62,0V24.79H14.83v0Z"/><path class="cls-1" d="M16.07,6.09V3.64c-.21,0-.41,0-.62,0s-.41,0-.62,0V6.11h1.24Z"/><path class="cls-1" d="M19.69,23.82,20.92,26a9.68,9.68,0,0,0,.88-.52L20.58,23.3Z"/><path class="cls-1" d="M26,10c-.16-.3-.33-.6-.52-.89L23.3,10.32l.52.89Z"/><path class="cls-1" d="M27.27,14.83H24.79v1.24h2.48c0-.21,0-.41,0-.62S27.28,15,27.27,14.83Z"/><path class="cls-1" d="M15.45,0A15.45,15.45,0,1,0,30.9,15.45,15.45,15.45,0,0,0,15.45,0Zm0,28.91A13.47,13.47,0,1,1,25,25,13.46,13.46,0,0,1,15.45,28.91Z"/><rect class="cls-2" x="24.29" y="16.75" width="14" height="18"/><path class="cls-1" d="M39.16,15.55H24.79a1.21,1.21,0,0,0-1.21,1.21V34.38a1.21,1.21,0,0,0,1.21,1.21H39.16a1.21,1.21,0,0,0,1.21-1.21V16.76A1.21,1.21,0,0,0,39.16,15.55ZM29.3,32.79a.31.31,0,0,1-.31.31H27a.31.31,0,0,1-.3-.31v-2a.31.31,0,0,1,.3-.3h2a.31.31,0,0,1,.31.3Zm0-3.69a.31.31,0,0,1-.31.31H27a.31.31,0,0,1-.3-.31v-2a.31.31,0,0,1,.3-.31h2a.31.31,0,0,1,.31.31Zm0-3.68a.31.31,0,0,1-.31.3H27a.31.31,0,0,1-.3-.3v-2a.31.31,0,0,1,.3-.31h2a.31.31,0,0,1,.31.31Zm4,7.37a.3.3,0,0,1-.3.31H31a.3.3,0,0,1-.3-.31v-2a.3.3,0,0,1,.3-.3h2a.3.3,0,0,1,.3.3Zm0-3.69a.3.3,0,0,1-.3.31H31a.3.3,0,0,1-.3-.31v-2a.3.3,0,0,1,.3-.31h2a.3.3,0,0,1,.3.31Zm0-3.68a.3.3,0,0,1-.3.3H31a.3.3,0,0,1-.3-.3v-2a.3.3,0,0,1,.3-.31h2a.3.3,0,0,1,.3.31Zm4,7.37a.31.31,0,0,1-.3.31H35a.31.31,0,0,1-.31-.31v-2a.31.31,0,0,1,.31-.3h2a.31.31,0,0,1,.3.3Zm0-3.69a.31.31,0,0,1-.3.31H35a.31.31,0,0,1-.31-.31v-2a.31.31,0,0,1,.31-.31h2a.31.31,0,0,1,.3.31Zm0-3.68a.31.31,0,0,1-.3.3H35a.31.31,0,0,1-.31-.3v-2a.31.31,0,0,1,.31-.31h2a.31.31,0,0,1,.3.31Zm1.32-5.1a.61.61,0,0,1-.61.61H26a.61.61,0,0,1-.61-.61V18a.6.6,0,0,1,.61-.6H37.94a.6.6,0,0,1,.61.6Z"/></g></g></svg>