<svg xmlns="http://www.w3.org/2000/svg" viewBox="0 0 27.26 33.5"><defs><style>.cls-1{fill:#325a96;}</style></defs><title>ico_02</title><g id="Layer_2" data-name="Layer 2"><g id="objects"><path class="cls-1" d="M15,16.5a4.11,4.11,0,0,1-1.32.22,4.21,4.21,0,0,1-1.33-.22,5.23,5.23,0,0,0-4.61,5.42H19.57A5.23,5.23,0,0,0,15,16.5Z"/><path class="cls-1" d="M13.63,15.75a3.25,3.25,0,0,0,3.25-3.24v-.93a3.25,3.25,0,1,0-6.5,0v.93A3.24,3.24,0,0,0,13.63,15.75Z"/><path class="cls-1" d="M21.64,0h-16A5.62,5.62,0,0,0,0,5.62V27.88A5.62,5.62,0,0,0,5.62,33.5H19.94l.61-.61,6.1-6.1.61-.61V5.62A5.62,5.62,0,0,0,21.64,0Zm3.54,25.32H22a3,3,0,0,0-3,2.95v3.15H5.62a3.55,3.55,0,0,1-3.54-3.54V5.62A3.55,3.55,0,0,1,5.62,2.08h16a3.55,3.55,0,0,1,3.54,3.54v19.7Z"/></g></g></svg>