<svg xmlns="http://www.w3.org/2000/svg" viewBox="0 0 59.06 59.06"><defs><style>.cls-1{fill:#325a96;}</style></defs><title>ico_08</title><g id="Layer_2" data-name="Layer 2"><g id="objects"><path class="cls-1" d="M32,37.1A10,10,0,0,0,14.88,30L29,44.18A10,10,0,0,0,32,37.1ZM27.5,31.57a7.83,7.83,0,0,1,1.32,9.31L18.18,30.24A7.86,7.86,0,0,1,27.5,31.57Z"/><path class="cls-1" d="M52.63,15.63,43.44,6.44,26.59,23.29l9.19,9.19ZM43.44,9.52l6.11,6.11L35.78,29.4l-6.11-6.11Z"/><path class="cls-1" d="M51.21,47.68l7.85-7.86L45,25.74l-7.86,7.85Zm-7.09-10L46,35.86l3,3-1.83,1.83Zm7.09,7.08L48.41,42l1.83-1.83,2.8,2.8Zm4.95-5-1.83,1.83-2.81-2.8L53.35,37Zm-4.1-4.09-1.82,1.83-3-3,1.83-1.83ZM45,28.65l2.8,2.8L46,33.28l-2.8-2.81Zm-.32,5.91-1.82,1.83L40,33.59l1.83-1.83Z"/><path class="cls-1" d="M19.24,0,11.39,7.85,25.48,21.94l7.85-7.85Zm7.09,10L24.5,11.82l-3-3L23.33,7ZM19.24,2.91,22,5.71,20.22,7.54l-2.81-2.8ZM14.3,7.85,16.12,6l2.81,2.81L17.1,10.66ZM18.39,12l1.83-1.83,3,3-1.83,1.83ZM25.47,19l-2.8-2.8L24.5,14.4l2.8,2.8Zm.32-5.92,1.83-1.83,2.8,2.81-1.83,1.83Z"/><path class="cls-1" d="M20,41.92a2,2,0,1,0-2.87,0A2,2,0,0,0,20,41.92Z"/><path class="cls-1" d="M15.38,57A16.7,16.7,0,0,1,2.11,43.68L0,44.09a18.85,18.85,0,0,0,15,15Z"/><path class="cls-1" d="M16.12,53.81l.38-2.12a11.33,11.33,0,0,1-6-3.13,11.44,11.44,0,0,1-3.14-6L5.26,43A13.47,13.47,0,0,0,16.12,53.81Z"/><path class="cls-1" d="M12.79,46.28a8.13,8.13,0,0,0,4.48,2.27l.34-2.12a6,6,0,0,1-3.3-1.68h0a6,6,0,0,1-1.68-3.29l-2.12.34a8.12,8.12,0,0,0,2.28,4.47Z"/></g></g></svg>