<svg xmlns="http://www.w3.org/2000/svg" viewBox="0 0 28.24 32.75"><defs><style>.cls-1{fill:#325a96;}</style></defs><title>ico_03</title><g id="Layer_2" data-name="Layer 2"><g id="objects"><polygon class="cls-1" points="18.94 20.09 15.62 20.09 15.26 20.65 15.26 21.98 18.94 21.98 18.94 21.98 18.94 23.59 18.94 23.87 15.26 23.87 15.26 26.71 12.98 26.71 12.98 23.87 9.3 23.87 9.3 23.59 9.3 21.98 9.3 21.98 12.98 21.98 12.98 20.65 12.62 20.09 9.3 20.09 9.3 18.48 11.58 18.48 9.64 15.46 11.58 15.46 14.12 19.41 16.66 15.46 18.6 15.46 16.66 18.48 18.94 18.48 18.94 20.09"/><path class="cls-1" d="M28.21,11.18a1,1,0,0,0-.74-1.25L23.79,9,27,7.22a1,1,0,1,0-1-1.8l-4.1,2.24,2.51-6.09a.31.31,0,0,0,0-.23.37.37,0,0,0-.17-.16,9.82,9.82,0,0,0-3.18-1c-2.37,0-4.67,1.24-6.77,1.24A4,4,0,0,1,12.49,1,8.3,8.3,0,0,0,8.74,0,18.38,18.38,0,0,0,3.92,1.2a.32.32,0,0,0-.19.15.29.29,0,0,0,0,.24L6.48,8.3a1,1,0,0,0-.57.92,1,1,0,0,0,.44.84C5,11.67,1.67,16,.41,20.74c-1.8,6.87,2.23,12,13.67,12s15.48-5.14,13.67-12a29.6,29.6,0,0,0-5.38-10L27,11.91A1,1,0,0,0,28.21,11.18ZM8.74,2.56a5.79,5.79,0,0,1,2.61.69,6.62,6.62,0,0,0,3,.68,14.39,14.39,0,0,0,3.86-.68,11.68,11.68,0,0,1,2.91-.56h.12L19,8.19H9.21L7,2.82A6.87,6.87,0,0,1,8.74,2.56ZM24.6,26.94C23,29,19.24,30.19,14.08,30.19S5.19,29,3.57,26.94c-1.06-1.38-1.29-3.24-.68-5.55,1.4-5.32,5.87-10.22,5.92-10.26l.82-.89h8.91l.82.89s4.51,4.9,5.92,10.26C25.88,23.7,25.65,25.56,24.6,26.94Z"/></g></g></svg>