<svg xmlns="http://www.w3.org/2000/svg" viewBox="0 0 61.57 58.62"><defs><style>.cls-1{fill:#325a96;}</style></defs><title>ico_04</title><g id="Layer_2" data-name="Layer 2"><g id="objects"><path class="cls-1" d="M18.05,11.34a5.67,5.67,0,1,0-5.67-5.67A5.67,5.67,0,0,0,18.05,11.34Z"/><path class="cls-1" d="M39.6,27.61,35.84,22a10.47,10.47,0,0,0-3.54-3.24l-7.37-4.13a6.29,6.29,0,0,0-3.66-.86l-3.52.48a5.25,5.25,0,0,0-3.36,1.88L7.68,23.23,1.53,25.5A2.33,2.33,0,0,0,.11,28.38l0,.09a2.34,2.34,0,0,0,2.76,1.58l5-1.15a10.62,10.62,0,0,0,3.5-1.52L14.88,25l1.23,9.36a3.11,3.11,0,0,1-.39,2L5.28,54.5a2.71,2.71,0,0,0,1,3.69l.09.06a2.71,2.71,0,0,0,3.58-.79L21.61,40.77l3.53,7.06a5.45,5.45,0,0,0,1,1.4L34,56.9A2.65,2.65,0,0,0,37.6,57l.13-.1A2.65,2.65,0,0,0,38,53.12l-6.62-7.37-3.59-13,0,0-1-10.19,3.65,1.64,5.83,6.14a2.16,2.16,0,0,0,2.79.29l.06,0A2.16,2.16,0,0,0,39.6,27.61Z"/><path class="cls-1" d="M59.79,2.22A6.09,6.09,0,0,0,49.57,5.1,6,6,0,0,0,48,2.22a6.08,6.08,0,0,0-8.61,8.6L49.57,21,59.79,10.82A6.07,6.07,0,0,0,59.79,2.22Z"/></g></g></svg>