<svg xmlns="http://www.w3.org/2000/svg" viewBox="0 0 21.46 22.26"><defs><style>.cls-1{fill:#fff;}.cls-2{fill:#325a96;}</style></defs><title>ico_cloud</title><g id="Layer_2" data-name="Layer 2"><g id="objects"><path class="cls-1" d="M17.36,14.78H5.12a5.24,5.24,0,0,1-4.09-2A4.72,4.72,0,0,1,0,10.4,4.92,4.92,0,0,1,3.88,5.13,5.21,5.21,0,0,1,8.66,0l.56,0h.2a5.73,5.73,0,0,1,4.66,3h0a3.87,3.87,0,0,1,1.05-.27l.37,0a3.43,3.43,0,0,1,3.46,3,3,3,0,0,1-.18,1.46,3.94,3.94,0,0,1,2.66,3.26,3.75,3.75,0,0,1-1.26,3.25l-.14.12-.19.15a4.19,4.19,0,0,1-2,.77l-.44,0Zm-.12-1.44h.44a2.7,2.7,0,0,0,1.31-.5.32.32,0,0,0,.1-.07l.16-.13a2.39,2.39,0,0,0,.78-2,2.53,2.53,0,0,0-1.8-2.09l-1.37-.44.56-1.29a1.85,1.85,0,0,0,.13-.9,2.05,2.05,0,0,0-2.28-1.72,2.32,2.32,0,0,0-.67.19l-1.23.55-.52-1.17c-1-1.54-2.29-2.39-3.59-2.31a3.24,3.24,0,0,0-.46,0A3.77,3.77,0,0,0,5.3,5.2l0,1.06L4.27,6.5a3.52,3.52,0,0,0-2.83,3.74,3.4,3.4,0,0,0,.7,1.7,3.79,3.79,0,0,0,3,1.41Z"/><path class="cls-2" d="M10.73,22.26a1.25,1.25,0,0,1-1-.5L6.55,17.57a1.26,1.26,0,0,1-.12-1.32c.37-.76.71-.83,1.12-.69h.72v-7A1.25,1.25,0,0,1,9.52,7.28h2.42A1.26,1.26,0,0,1,13.2,8.53v7h.71a1.25,1.25,0,0,1,1,2l-3.18,4.2A1.25,1.25,0,0,1,10.73,22.26ZM8.84,17.45,10.73,20l1.89-2.5h-.06A1.25,1.25,0,0,1,11.3,16.2v-7H10.16v7a1.25,1.25,0,0,1-1.25,1.25Z"/><path class="cls-1" d="M13.91,16.51H12.56a.31.31,0,0,1-.31-.31V8.53a.31.31,0,0,0-.31-.31H9.52a.31.31,0,0,0-.31.31V16.2a.3.3,0,0,1-.3.31H7.55a.3.3,0,0,0-.24.49l3.18,4.19a.31.31,0,0,0,.49,0L14.16,17A.31.31,0,0,0,13.91,16.51Z"/><path class="cls-2" d="M10.73,21.55a.55.55,0,0,1-.43-.21l-3.18-4.2a.54.54,0,0,1,.43-.87H8.91A.07.07,0,0,0,9,16.2V8.53A.54.54,0,0,1,9.52,8h2.42a.55.55,0,0,1,.55.54V16.2a.07.07,0,0,0,.07.07h1.35a.54.54,0,0,1,.43.87l-3.18,4.2A.55.55,0,0,1,10.73,21.55ZM7.55,16.74a.07.07,0,0,0-.06,0,.06.06,0,0,0,0,.07l3.18,4.2c0,.05.07.05.11,0L14,16.85a.06.06,0,0,0,0-.07.06.06,0,0,0-.06,0H12.56A.55.55,0,0,1,12,16.2V8.53a.07.07,0,0,0-.07-.07H9.52a.07.07,0,0,0-.07.07V16.2a.54.54,0,0,1-.54.54Z"/></g></g></svg>