<svg xmlns="http://www.w3.org/2000/svg" viewBox="0 0 32.46 40.54"><defs><style>.cls-1{fill:#325a96;}</style></defs><title>ico_04</title><g id="Layer_2" data-name="Layer 2"><g id="objects"><path class="cls-1" d="M16.87,5.71a.4.4,0,0,1-.4.4H16a.39.39,0,0,1-.39-.4L15.39.53A.53.53,0,0,1,15.92,0h.64a.53.53,0,0,1,.53.53Z"/><path class="cls-1" d="M10.4,7.1a.39.39,0,0,1-.14.54l-.42.24a.39.39,0,0,1-.54-.14L6.53,3.36a.53.53,0,0,1,.19-.73l.55-.32a.53.53,0,0,1,.73.2Z"/><path class="cls-1" d="M5.49,11.53a.41.41,0,0,1,.15.55l-.24.41a.39.39,0,0,1-.54.15L.27,10.23a.52.52,0,0,1-.2-.72L.39,9a.54.54,0,0,1,.73-.19Z"/><path class="cls-1" d="M27.61,12.65a.4.4,0,0,1-.55-.14l-.24-.42a.41.41,0,0,1,.15-.55l4.38-2.77a.53.53,0,0,1,.72.2l.32.55a.54.54,0,0,1-.19.73Z"/><path class="cls-1" d="M23.17,7.74a.4.4,0,0,1-.55.15l-.41-.24a.41.41,0,0,1-.15-.55l2.41-4.59a.54.54,0,0,1,.73-.19l.55.32a.55.55,0,0,1,.2.73Z"/><path class="cls-1" d="M16.23,16.46a8.4,8.4,0,0,0-5.24,15c.28.22.29.52.27,1.12A1.86,1.86,0,0,0,11.64,34a1.23,1.23,0,0,0,.59.34V39l2.21.74h.42a1.38,1.38,0,0,0,1.4.85,1.4,1.4,0,0,0,1.4-.85h.41L20.28,39V34.36a1.36,1.36,0,0,0,.55-.33,1.9,1.9,0,0,0,.38-1.49c0-.6,0-.9.26-1.12a8.4,8.4,0,0,0-5.24-15Zm4,13.45a2.79,2.79,0,0,0-1,2.37H13.21a2.83,2.83,0,0,0-1-2.37,6.46,6.46,0,1,1,8.06,0Z"/></g></g></svg>