<svg xmlns="http://www.w3.org/2000/svg" viewBox="0 0 26.9 20.22"><defs><style>.cls-1{fill:#325a96;}</style></defs><title>ico_ft02</title><g id="Layer_2" data-name="Layer 2"><g id="objects"><polygon class="cls-1" points="26.9 12.17 23.43 8.56 26.9 5.57 26.9 12.17"/><polygon class="cls-1" points="3.48 8.56 0 12.18 0 5.57 3.48 8.56"/><path class="cls-1" d="M26.9,15.45v3.32a1.45,1.45,0,0,1-1.46,1.45h-24A1.45,1.45,0,0,1,0,18.77V15.45l5.2-5.4,5.94,5.12a3.66,3.66,0,0,0,4.62,0l5.94-5.12Z"/><path class="cls-1" d="M26.9,1.45V2.9L14.21,13.83a1.25,1.25,0,0,1-1.53,0L0,2.9V1.45A1.45,1.45,0,0,1,1.45,0h24A1.45,1.45,0,0,1,26.9,1.45Z"/></g></g></svg>