<svg xmlns="http://www.w3.org/2000/svg" viewBox="0 0 39.18 50.38"><defs><style>.cls-1{fill:#325a96;}</style></defs><title>ico_hotline1</title><g id="Layer_2" data-name="Layer 2"><g id="objects"><path class="cls-1" d="M39.14,42.59l-.36-2.07a5.74,5.74,0,0,0-3.32-4.15l-7.53-3.46a2.79,2.79,0,0,1-1.21-1.83.48.48,0,0,0-.43-.2h0a.47.47,0,0,0-.38.32L25,34.25,19.59,44.1l-5.42-9.82-.88-3.08a.48.48,0,0,0-.44-.32.45.45,0,0,0-.41.26,2.7,2.7,0,0,1-1.19,1.77L3.71,36.37A5.73,5.73,0,0,0,.4,40.52L0,42.59a2.68,2.68,0,0,0,.83,2.52,3.08,3.08,0,0,1,.35.29c1.39,1.23,5.61,5,18.37,5s17-3.75,18.37-5a3.08,3.08,0,0,1,.35-.29A2.68,2.68,0,0,0,39.14,42.59Z"/><path class="cls-1" d="M23.18,12.33c1.82,3.43,4.32,8.12,5.41,8.8l.21.13.76-5.93A9,9,0,0,0,27.2,8.4a10.3,10.3,0,0,0-7.61-3.22A10.3,10.3,0,0,0,12,8.4a9,9,0,0,0-2.36,6.94l.69,5.87.23-.26A13.69,13.69,0,0,1,13,19.21a27.23,27.23,0,0,0,9.26-8.67Z"/><path class="cls-1" d="M4.45,23.88a1.17,1.17,0,0,0,1.14.9.84.84,0,0,0,.27,0l2-.47a1.18,1.18,0,0,0,.82-.73h.08l0-.15a1.1,1.1,0,0,0,0-.54l-1-4.27a24.48,24.48,0,0,1-.37-3.77,12.29,12.29,0,0,1,24.58,0,23.54,23.54,0,0,1-.39,3.82l-1,4.22a.58.58,0,0,0,0,.19l0,.09a7.76,7.76,0,0,1-5.61,3.8,1.27,1.27,0,0,0-1.11-.66H21.14a1.27,1.27,0,0,0-1.26,1.27v1a1.27,1.27,0,0,0,1.26,1.27h2.55A1.27,1.27,0,0,0,24.87,29a10.83,10.83,0,0,0,5.21-2.33A9.06,9.06,0,0,0,32,24.43l1.32.31a1.26,1.26,0,0,0,.27,0,1.17,1.17,0,0,0,1.14-.9l1-4.22a1.17,1.17,0,0,0-.86-1.41l-.73-.18a24.25,24.25,0,0,0,.26-3.25,14.82,14.82,0,0,0-29.64,0A24.25,24.25,0,0,0,5,18.07l-.73.18a1.16,1.16,0,0,0-.86,1.41Z"/></g></g></svg>