<svg xmlns="http://www.w3.org/2000/svg" viewBox="0 0 58.42 61.4"><defs><style>.cls-1{fill:#325a96;}.cls-2,.cls-3{fill:none;stroke:#fff;}.cls-2{stroke-width:3px;}.cls-3{stroke-miterlimit:10;stroke-width:4px;}</style></defs><title>ico_07</title><g id="Layer_2" data-name="Layer 2"><g id="objects"><path class="cls-1" d="M25.13,22.68l6.53,5,.09.05,0,0a1.49,1.49,0,0,0,1.81-.4l0,0,8-9.46A1.08,1.08,0,1,0,40,16.45l-7.47,8-5.77-4a1.42,1.42,0,0,0-1.66,2.26Z"/><path class="cls-1" d="M17,25.76c0-.35,0-.69,0-1H13c0,.34,0,.68,0,1s0,.69,0,1h4.09C17,26.45,17,26.11,17,25.76Z"/><path class="cls-1" d="M24.25,12.56a11.75,11.75,0,0,1,1.19-.68l.15-.08-2-3.54a14.66,14.66,0,0,0-1.49.85l2,3.55Z"/><path class="cls-1" d="M15.16,16.65l3.55,2,.85-1.49-3.54-2A14.75,14.75,0,0,0,15.16,16.65Z"/><path class="cls-1" d="M46.55,33q-.31.6-.69,1.17l-.1.15,3.54,2c.32-.49.6-1,.87-1.49l-3.54-2Z"/><path class="cls-1" d="M18.78,33l-.08-.15-3.54,2A14,14,0,0,0,16,36.36l3.54-2-.1-.15C19.22,33.78,19,33.39,18.78,33Z"/><path class="cls-1" d="M24.25,39l-.15-.11-2,3.55a14.75,14.75,0,0,0,1.49.86l2-3.54-.15-.08A11.75,11.75,0,0,1,24.25,39Z"/><path class="cls-1" d="M39.73,11.8l1.49.86,2-3.55a14.51,14.51,0,0,0-1.48-.85Z"/><path class="cls-1" d="M31.63,41.37v4.09c.34,0,.69,0,1,0s.69,0,1,0V41.33H31.63v0Z"/><path class="cls-1" d="M33.69,10.15V6.06c-.34,0-.68,0-1,0s-.69,0-1,0v4.13h2.06Z"/><path class="cls-1" d="M39.73,39.73l2.05,3.53a16.76,16.76,0,0,0,1.48-.86l-2-3.55Z"/><path class="cls-1" d="M50.17,16.65a14.84,14.84,0,0,0-.87-1.49l-3.54,2,.86,1.49Z"/><path class="cls-1" d="M52.37,24.73H48.23v2.06h4.14c0-.34,0-.68,0-1S52.39,25.07,52.37,24.73Z"/><path class="cls-1" d="M32.66,0A25.76,25.76,0,1,0,58.42,25.76,25.76,25.76,0,0,0,32.66,0Zm0,48.2a22.43,22.43,0,1,1,15.87-6.57A22.35,22.35,0,0,1,32.66,48.2Z"/><path class="cls-2" d="M18,16.89H6.44A4.94,4.94,0,0,0,2,21.33V36.08a1.93,1.93,0,0,0,3.85,0V24h.89V56.87a2.53,2.53,0,0,0,5.06,0V37.77h.81v19.1a2.53,2.53,0,0,0,5.06,0V24h.89V36.08a1.93,1.93,0,0,0,3.85,0V21.33A5,5,0,0,0,18,16.89Z"/><path class="cls-2" d="M18,16.89H6.44A4.94,4.94,0,0,0,2,21.33V36.08a1.93,1.93,0,0,0,3.85,0V24h.89V56.87a2.53,2.53,0,0,0,5.06,0V37.77h.81v19.1a2.53,2.53,0,0,0,5.06,0V24h.89V36.08a1.93,1.93,0,0,0,3.85,0V21.33A5,5,0,0,0,18,16.89Z"/><path class="cls-2" d="M12.57,15.65a4.39,4.39,0,1,0-4.39-4.38A4.38,4.38,0,0,0,12.57,15.65Z"/><path class="cls-3" d="M18,16.89H6.44A4.94,4.94,0,0,0,2,21.33V36.08a1.93,1.93,0,0,0,3.85,0V24h.89V56.87a2.53,2.53,0,0,0,5.06,0V37.77h.81v19.1a2.53,2.53,0,0,0,5.06,0V24h.89V36.08a1.93,1.93,0,0,0,3.85,0V21.33A5,5,0,0,0,18,16.89Z"/><path class="cls-1" d="M18,16.89H6.44A4.94,4.94,0,0,0,2,21.33V36.08a1.93,1.93,0,0,0,3.85,0V24h.89V56.87a2.53,2.53,0,0,0,5.06,0V37.77h.81v19.1a2.53,2.53,0,0,0,5.06,0V24h.89V36.08a1.93,1.93,0,0,0,3.85,0V21.33A5,5,0,0,0,18,16.89Z"/><path class="cls-1" d="M12.57,15.65a4.39,4.39,0,1,0-4.39-4.38A4.38,4.38,0,0,0,12.57,15.65Z"/></g></g></svg>