<svg xmlns="http://www.w3.org/2000/svg" viewBox="0 0 68.1 51.77"><defs><style>.cls-1{fill:#325a96;}</style></defs><title>ico_041</title><g id="Layer_2" data-name="Layer 2"><g id="objects"><path class="cls-1" d="M27.81,43.72H2.32V6.35H27.81V21.28l2.31,1.16V3.71A3.72,3.72,0,0,0,26.41,0H3.71A3.72,3.72,0,0,0,0,3.71V48.06a3.72,3.72,0,0,0,3.71,3.71h22.7a3.72,3.72,0,0,0,3.71-3.71V34.53l-2.31-1.16V43.72ZM15.06,48.27a1.12,1.12,0,1,1,1.12-1.11A1.11,1.11,0,0,1,15.06,48.27Z"/><path class="cls-1" d="M61,21.18,48.07,14.69a4.38,4.38,0,0,0-6.32,3.16h-.24a4.39,4.39,0,0,0-3.94,2.43,4.23,4.23,0,0,0-.46,1.91,3.49,3.49,0,0,0-1.24.69,5.84,5.84,0,0,0-1.34,1.79,3.74,3.74,0,0,0-.3.95l-8.5-4.26a4.41,4.41,0,0,0-5.92,2h0a4.36,4.36,0,0,0-.47,2,4.42,4.42,0,0,0,2.44,3.95L38,37.36,41.15,39h0a3.33,3.33,0,0,1,.49.29l-5.77,1.39a4.83,4.83,0,0,0-3.71,4.7,4.76,4.76,0,0,0,.13,1.12A4.83,4.83,0,0,0,37,50.18a5.44,5.44,0,0,0,1.13-.13h0l12.25-2.94c2.56-.55,4.15-1.09,6.31-1.71a24,24,0,0,0,5.66-2.22,11.15,11.15,0,0,0,4.39-4.74A12.85,12.85,0,0,0,61,21.18Zm3.25,16a8.44,8.44,0,0,1-3.34,3.6,21.29,21.29,0,0,1-5,1.94c-2.23.64-3.71,1.14-6.15,1.67h0L37.47,47.35h0a2.85,2.85,0,0,1-.49.06,2.07,2.07,0,0,1-2-1.59,2,2,0,0,1-.06-.48,2.08,2.08,0,0,1,1.59-2l6.08-1.45a1.52,1.52,0,0,0,.32-.12,3.9,3.9,0,0,0,1.23-.95,2.35,2.35,0,0,0,.56-1.47,2.39,2.39,0,0,0-.34-1.2,3.79,3.79,0,0,0-1-1,7.15,7.15,0,0,0-1-.62h0l-3.19-1.6L23,26.76a1.63,1.63,0,0,1-.91-1.47,1.61,1.61,0,0,1,.18-.73,1.62,1.62,0,0,1,2.2-.73l11.64,5.84a1.39,1.39,0,0,0,.26.1h0l.22,0h.07a.67.67,0,0,0,.2,0,.65.65,0,0,0,.19,0h.07a1.47,1.47,0,0,0,.47-.27h0a1.4,1.4,0,0,0,.33-.42,2,2,0,0,0,.1-.26v-.06a1.55,1.55,0,0,0,0-.21v-.07a1.41,1.41,0,0,0,0-.2l0-.11a.8.8,0,0,0,0-.15h0a1.48,1.48,0,0,0-.26-.46l0,0a1.46,1.46,0,0,0-.41-.32.66.66,0,0,1-.32-.32,1.36,1.36,0,0,1-.12-.56,1.13,1.13,0,0,1,.07-.4,3.12,3.12,0,0,1,.67-.94.65.65,0,0,1,.47-.2l.24,0A1.39,1.39,0,0,0,40,22.9a1.64,1.64,0,0,1-.15-.68,1.68,1.68,0,0,1,.17-.71,1.65,1.65,0,0,1,1.47-.9,1.53,1.53,0,0,1,.74.18l.42.21a1.39,1.39,0,0,0,1.9-1.76,1.72,1.72,0,0,1-.12-.63,1.51,1.51,0,0,1,.17-.71,1.62,1.62,0,0,1,2.2-.73l12.94,6.49a10.09,10.09,0,0,1,5.57,9A10.2,10.2,0,0,1,64.26,37.2Z"/></g></g></svg>